#!OML:ASF F:\VICON\USERDATA\INSTALL\rory3\rory3.ASF
:FULLY-SPECIFIED
:DEGREES
419
root 5.11148 16.9982 2.01539 7.50226 -9.68193 -8.04465
lowerback 21.3607 -1.03118 1.48119
upperback 5.36425 -0.949929 1.55038
thorax -6.07997 -0.492704 1.07453
lowerneck -13.8619 -0.978372 -1.91159
upperneck 38.8418 -1.41281 0.749697
head 16.2215 -0.851987 0.399397
rclavicle 5.36719e-014 -2.38542e-014
rhumerus -41.5368 -5.78042 -15.6391
rradius 35.3591
rwrist -2.99995
rhand -16.2047 -45.054
rfingers 7.12502
rthumb 10.0026 -74.7964
lclavicle 5.36719e-014 -2.38542e-014
lhumerus -36.1621 7.47727 17.995
lradius 29.6144
lwrist 15.4781
lhand -26.6302 -32.7445
lfingers 7.12502
lthumb -0.0628942 -2.76477
rfemur -102.419 -2.74191 28.6205
rtibia 96.997
rfoot 48.7067 1.27234
rtoes -3.77583
lfemur -28.8478 7.80254 -22.4289
ltibia 41.6732
lfoot -18.1767 4.04859
ltoes 10.6024
420
root 5.11101 17.0008 2.01881 7.50513 -9.83872 -8.25155
lowerback 21.3442 -1.00631 1.68057
upperback 5.35366 -0.872892 1.59398
thorax -6.08536 -0.457744 0.987727
lowerneck -13.898 -0.929844 -1.82448
upperneck 38.9021 -1.32985 0.653188
head 16.2585 -0.818535 0.355774
rclavicle -3.33958e-014 8.74653e-015
rhumerus -41.5051 -5.76944 -15.6498
rradius 35.1337
rwrist -3.31396
rhand -17.739 -43.7276
rfingers 7.12502
rthumb 8.52226 -73.5356
lclavicle -3.33958e-014 8.74653e-015
lhumerus -36.2232 7.48336 17.827
lradius 30.088
lwrist 16.2473
lhand -26.5923 -25.6992
lfingers 7.12502
lthumb -0.0262724 4.28058
rfemur -102.393 -2.46489 28.7159
rtibia 97.0785
rfoot 48.5846 0.975252
rtoes -3.46698
lfemur -28.7589 7.78478 -22.1891
ltibia 41.6729
lfoot -18.1958 4.23207
ltoes 10.6919
421
root 5.11163 17.0021 2.02485 7.4952 -10.0223 -8.29342
lowerback 21.3322 -0.940161 1.76576
upperback 5.33098 -0.76877 1.60031
thorax -6.10502 -0.408474 0.919041
lowerneck -14.0084 -0.891209 -1.65874
upperneck 39.0833 -1.21939 0.388848
head 16.3756 -0.785055 0.228727
rclavicle 1.63003e-014 1.27222e-014
rhumerus -41.5979 -5.8673 -15.5681
rradius 35.3832
rwrist -2.73594
rhand -16.8452 -44.0845
rfingers 7.12502
rthumb 9.38474 -73.8556
lclavicle 1.63003e-014 1.27222e-014
lhumerus -36.2524 7.35749 17.8304
lradius 29.2549
lwrist 15.5883
lhand -26.8152 -33.0428
lfingers 7.12502
lthumb -0.241608 -3.06316
rfemur -102.421 -2.22268 28.6838
rtibia 97.147
rfoot 48.6234 1.17379
rtoes -3.82689
lfemur -28.6691 7.75431 -22.1431
ltibia 41.6617
lfoot -18.2198 4.45743
ltoes 10.6263
422
root 5.11013 16.9994 2.0283 7.48016 -10.2121 -8.2626
lowerback 21.3489 -0.864496 1.72589
upperback 5.32274 -0.680395 1.58095
thorax -6.12273 -0.365573 0.898295
lowerneck -14.2676 -0.859053 -1.48962
upperneck 39.2751 -1.17203 0.260423
head 16.539 -0.758105 0.148247
rclavicle -1.11319e-014 -1.90833e-014
rhumerus -41.6137 -5.8566 -15.6462
rradius 35.2829
rwrist -3.05643
rhand -18.3207 -42.9798
rfingers 7.12502
rthumb 7.96086 -72.8099
lclavicle -1.11319e-014 -1.90833e-014
lhumerus -36.1924 7.59104 17.6077
lradius 29.3164
lwrist 15.5821
lhand -25.3012 -34.6575
lfingers 7.12502
lthumb 1.22071 -4.68123
rfemur -102.469 -1.95486 28.5778
rtibia 97.1749
rfoot 48.6762 1.4612
rtoes -4.41136
lfemur -28.6056 7.74025 -22.172
ltibia 41.627
lfoot -18.1843 4.626
ltoes 10.6682
423
root 5.11048 17.0012 2.03216 7.48001 -10.3822 -8.23635
lowerback 21.2811 -0.828272 1.71259
upperback 5.33883 -0.642221 1.53925
thorax -6.0705 -0.347102 0.849646
lowerneck -14.4963 -0.788851 -1.23562
upperneck 39.3946 -1.07338 0.0759787
head 16.6556 -0.705371 0.0366534
rclavicle 1.59028e-014 -2.14687e-014
rhumerus -41.4105 -6.24616 -15.5845
rradius 35.1356
rwrist -2.6038
rhand -18.1151 -43.1224
rfingers 7.12502
rthumb 8.15929 -72.9449
lclavicle 1.59028e-014 -2.14687e-014
lhumerus -36.3074 7.61642 17.3804
lradius 29.7452
lwrist 15.9672
lhand -24.3787 -33.4672
lfingers 7.12502
lthumb 2.11163 -3.49786
rfemur -102.501 -1.72369 28.4367
rtibia 97.2232
rfoot 48.6074 1.13569
rtoes -4.48944
lfemur -28.5612 7.64515 -22.1897
ltibia 41.5801
lfoot -18.2143 4.77345
ltoes 10.7008
424
root 5.11123 17.0057 2.03506 7.49804 -10.4558 -8.17987
lowerback 21.2515 -0.822662 1.72597
upperback 5.31441 -0.634965 1.50348
thorax -6.08215 -0.343775 0.801406
lowerneck -14.5892 -0.73306 -1.04563
upperneck 39.4472 -0.96247 -0.142633
head 16.7032 -0.661774 -0.0755676
rclavicle 2.54444e-014 8.74653e-015
rhumerus -41.1081 -6.91368 -15.3612
rradius 34.7424
rwrist -1.95904
rhand -17.0319 -44.3836
rfingers 7.12502
rthumb 9.20453 -74.1628
lclavicle 2.54444e-014 8.74653e-015
lhumerus -36.6476 7.21501 17.3412
lradius 30.1814
lwrist 16.437
lhand -24.3549 -32.7408
lfingers 7.12502
lthumb 2.13464 -2.77177
rfemur -102.585 -1.61251 28.291
rtibia 97.3431
rfoot 48.6759 0.661913
rtoes -4.10953
lfemur -28.5461 7.4126 -22.2287
ltibia 41.5491
lfoot -18.2004 4.87707
ltoes 10.9854
425
root 5.10855 17.0059 2.03136 7.54126 -10.4257 -8.25842
lowerback 21.2471 -0.855748 1.84915
upperback 5.32633 -0.651282 1.51673
thorax -6.06785 -0.352925 0.749517
lowerneck -14.6789 -0.709967 -1.08753
upperneck 39.4635 -0.949102 -0.0514446
head 16.7357 -0.649809 -0.0256621
rclavicle -1.98785e-014 7.15625e-015
rhumerus -40.8446 -7.3671 -15.3197
rradius 34.4261
rwrist -1.35605
rhand -16.1259 -45.2074
rfingers 7.12502
rthumb 10.0787 -74.9461
lclavicle -1.98785e-014 7.15625e-015
lhumerus -36.7833 7.21336 17.1801
lradius 30.0679
lwrist 16.3165
lhand -24.3271 -32.6352
lfingers 7.12502
lthumb 2.16142 -2.66645
rfemur -102.698 -1.52551 28.3316
rtibia 97.4536
rfoot 48.7841 0.596549
rtoes -3.82668
lfemur -28.5897 7.15056 -22.1069
ltibia 41.5389
lfoot -18.0357 4.95006
ltoes 11.4859
426
root 5.10507 17.0038 2.02649 7.62841 -10.4667 -8.43888
lowerback 21.1255 -0.84427 2.065
upperback 5.36732 -0.593639 1.55105
thorax -5.96144 -0.326904 0.646224
lowerneck -14.5942 -0.736345 -1.29195
upperneck 39.3297 -1.04147 0.25054
head 16.6468 -0.675491 0.129867
rclavicle -4.37326e-015 7.95139e-015
rhumerus -40.8383 -7.65738 -15.3219
rradius 34.3885
rwrist -0.769326
rhand -16.0302 -44.6416
rfingers 7.12502
rthumb 10.171 -74.3758
lclavicle -4.37326e-015 7.95139e-015
lhumerus -36.6081 7.69635 16.8786
lradius 29.5011
lwrist 15.7174
lhand -24.2561 -33.8109
lfingers 7.12502
lthumb 2.23004 -3.84279
rfemur -102.824 -1.32556 28.4688
rtibia 97.5253
rfoot 48.8034 0.326844
rtoes -3.24561
lfemur -28.6831 7.00004 -21.9047
ltibia 41.5352
lfoot -17.8673 5.18671
ltoes 11.4309
427
root 5.10749 17.0037 2.03161 7.59469 -10.5887 -8.4939
lowerback 21.0927 -0.798671 2.22989
upperback 5.36981 -0.5008 1.55947
thorax -5.94218 -0.283582 0.53704
lowerneck -14.3279 -0.786997 -1.4679
upperneck 39.1096 -1.10786 0.370962
head 16.4656 -0.711041 0.205014
rclavicle -1.51076e-014 -1.59028e-015
rhumerus -41.2526 -6.76344 -15.7408
rradius 35.4405
rwrist -1.49622
rhand -16.1062 -44.7149
rfingers 7.12502
rthumb 10.0977 -74.4526
lclavicle -1.51076e-014 -1.59028e-015
lhumerus -36.6665 7.67019 16.8191
lradius 29.4354
lwrist 15.6917
lhand -24.4349 -34.3899
lfingers 7.12502
lthumb 2.0573 -4.42007
rfemur -102.844 -1.18039 28.4583
rtibia 97.6383
rfoot 48.8031 -0.421512
rtoes -2.46063
lfemur -28.5915 6.92185 -21.8776
ltibia 41.5213
lfoot -17.8297 5.54698
ltoes 11.0939
428
root 5.11292 17.0079 2.04162 7.50229 -10.6707 -8.51546
lowerback 21.1322 -0.827969 2.33904
upperback 5.3743 -0.513921 1.5749
thorax -5.9585 -0.291242 0.495418
lowerneck -14.1619 -0.74329 -1.41447
upperneck 38.9318 -0.969646 0.145663
head 16.3262 -0.67688 0.121965
rclavicle -1.82882e-014 1.74931e-014
rhumerus -40.9922 -6.94703 -15.7269
rradius 35.3401
rwrist -1.14119
rhand -15.7407 -44.8952
rfingers 7.12502
rthumb 10.4503 -74.6155
lclavicle -1.82882e-014 1.74931e-014
lhumerus -37.0652 7.28196 16.8324
lradius 29.6589
lwrist 16.142
lhand -24.8585 -33.4674
lfingers 7.12502
lthumb 1.64821 -3.49406
rfemur -102.766 -1.13869 28.4293
rtibia 97.7318
rfoot 48.7318 -0.429984
rtoes -2.8917
lfemur -28.3917 6.80924 -21.8817
ltibia 41.4882
lfoot -17.8908 5.86999
ltoes 11.006
429
root 5.11448 17.0117 2.04535 7.48883 -10.6874 -8.51626
lowerback 21.125 -0.908681 2.35603
upperback 5.38872 -0.615094 1.58747
thorax -5.93992 -0.340376 0.52504
lowerneck -14.1678 -0.607931 -1.12135
upperneck 38.8092 -0.671252 -0.328739
head 16.256 -0.576175 -0.0858569
rclavicle 6.75868e-015 2.38542e-015
rhumerus -40.681 -6.92384 -15.9271
rradius 35.6228
rwrist -1.16909
rhand -15.2689 -45.4564
rfingers 7.12502
rthumb 10.9054 -75.1532
lclavicle 6.75868e-015 2.38542e-015
lhumerus -37.4136 7.32546 16.5661
lradius 29.646
lwrist 16.2893
lhand -25.1141 -33.0297
lfingers 7.12502
lthumb 1.4014 -3.0546
rfemur -102.771 -1.1097 28.4127
rtibia 97.794
rfoot 48.5586 0.492969
rtoes -4.08328
lfemur -28.3125 6.62757 -21.8778
ltibia 41.4443
lfoot -17.9008 6.09842
ltoes 11.1534
430
root 5.11388 17.0131 2.04495 7.49185 -10.7346 -8.53394
lowerback 21.1186 -0.941833 2.4019
upperback 5.43166 -0.650259 1.59021
thorax -5.8907 -0.357668 0.510299
lowerneck -14.2397 -0.526907 -0.973534
upperneck 38.6708 -0.498612 -0.568985
head 16.1991 -0.515463 -0.186555
rclavicle -2.14687e-014 -7.95139e-015
rhumerus -40.5325 -7.04122 -16.0987
rradius 35.8492
rwrist -1.13598
rhand -15.0479 -45.7345
rfingers 7.12502
rthumb 11.1185 -75.4199
lclavicle -2.14687e-014 -7.95139e-015
lhumerus -37.6558 7.89242 16.1248
lradius 29.552
lwrist 15.9735
lhand -25.6836 -31.1811
lfingers 7.12502
lthumb 0.851291 -1.203
rfemur -102.785 -1.01376 28.4076
rtibia 97.8199
rfoot 48.4519 0.809707
rtoes -4.01156
lfemur -28.2866 6.47296 -21.8412
ltibia 41.4156
lfoot -17.92 6.25001
ltoes 11.4838
431
root 5.11225 17.0121 2.04378 7.51711 -10.8698 -8.52477
lowerback 21.143 -0.90238 2.38025
upperback 5.44734 -0.603382 1.59602
thorax -5.88571 -0.334948 0.517051
lowerneck -14.3041 -0.543267 -1.12963
upperneck 38.5461 -0.539081 -0.393876
head 16.1515 -0.529602 -0.0885209
rclavicle 3.18055e-015 -2.62396e-014
rhumerus -40.5422 -7.06035 -16.2597
rradius 36.1701
rwrist -1.1959
rhand -14.8975 -45.8539
rfingers 7.12502
rthumb 11.2636 -75.5315
lclavicle 3.18055e-015 -2.62396e-014
lhumerus -37.9032 8.38888 15.7735
lradius 29.62
lwrist 15.7952
lhand -26.2579 -27.3365
lfingers 7.12502
lthumb 0.296693 2.64299
rfemur -102.842 -0.838339 28.362
rtibia 97.8163
rfoot 48.5107 0.661157
rtoes -3.3795
lfemur -28.2994 6.36798 -21.843
ltibia 41.4124
lfoot -17.9531 6.44483
ltoes 12.0057
432
root 5.11051 17.0101 2.04323 7.51441 -10.9433 -8.43722
lowerback 21.2161 -0.880072 2.29181
upperback 5.38714 -0.588004 1.6037
thorax -5.98816 -0.327316 0.573588
lowerneck -14.3217 -0.596195 -1.38655
upperneck 38.6258 -0.645133 -0.121436
head 16.2007 -0.574106 0.0572507
rclavicle 5.20816e-014 -1.90833e-014
rhumerus -40.4193 -7.11092 -16.2928
rradius 35.9874
rwrist -1.03518
rhand -14.9698 -45.2002
rfingers 7.12502
rthumb 11.1938 -74.8816
lclavicle 5.20816e-014 -1.90833e-014
lhumerus -38.0707 8.33025 15.6479
lradius 29.5666
lwrist 16.1013
lhand -25.6843 -27.5239
lfingers 7.12502
lthumb 0.850644 2.45412
rfemur -102.928 -0.762171 28.2505
rtibia 97.8492
rfoot 48.6183 1.02394
rtoes -3.08591
lfemur -28.2925 6.19002 -21.9224
ltibia 41.4117
lfoot -18.0168 6.64247
ltoes 12.815
